<?xml version="1.0" standalone="no"?>
<!DOCTYPE svg PUBLIC "-//W3C//DTD SVG 20010904//EN"
 "http://www.w3.org/TR/2001/REC-SVG-20010904/DTD/svg10.dtd">
<svg version="1.0" xmlns="http://www.w3.org/2000/svg"
 width="700.000000pt" height="700.000000pt" viewBox="0 0 700.000000 700.000000"
 preserveAspectRatio="xMidYMid meet">
<metadata>
Created by potrace 1.14, written by Peter Selinger 2001-2017
</metadata>
<g transform="translate(0.000000,700.000000) scale(0.100000,-0.100000)"
fill="#000000" stroke="none">
<path d="M3317 6615 c-1 -2 -47 -6 -102 -9 -192 -13 -372 -40 -555 -82 -607
-142 -1121 -417 -1523 -818 -105 -103 -249 -272 -293 -341 -10 -16 -21 -32
-24 -35 -11 -9 -124 -194 -155 -252 -33 -63 -32 -63 -150 -73 -38 -4 -83 -8
-100 -10 -83 -11 -152 -18 -167 -17 -10 0 -21 -4 -25 -11 -8 -13 -11 -435 -3
-445 3 -4 14 -8 25 -10 55 -7 106 -27 136 -51 l32 -27 -17 -70 c-9 -38 -19
-80 -21 -94 -18 -93 -27 -145 -30 -178 -3 -20 -7 -53 -10 -72 -7 -56 -15 -130
-21 -200 -6 -73 -6 -464 0 -525 2 -22 7 -71 11 -110 6 -64 13 -120 31 -229 7
-45 7 -47 28 -147 115 -556 429 -1114 831 -1474 43 -38 83 -75 89 -81 7 -6 62
-49 123 -95 394 -297 872 -502 1398 -598 61 -11 130 -22 155 -25 119 -14 152
-18 245 -26 105 -8 495 -5 580 5 28 3 88 10 135 16 252 30 557 105 813 203 78
29 99 39 262 117 704 339 1220 915 1467 1639 63 186 110 385 134 575 3 22 7
45 9 52 26 80 26 737 1 881 -2 9 -6 40 -10 67 -4 28 -18 112 -33 187 l-26 137
24 35 c24 36 87 74 136 82 68 12 63 -7 63 243 0 209 -1 227 -17 227 -10 0 -45
4 -78 8 -33 5 -73 9 -90 11 -16 1 -66 6 -110 10 -44 4 -96 8 -116 10 -48 2
-52 6 -88 75 -200 383 -589 787 -1001 1039 -254 156 -624 313 -860 366 -8 2
-40 10 -70 18 -121 33 -367 73 -560 93 -60 6 -467 13 -473 9z"/>
</g>
</svg>
